<svg width="9" height="9" viewBox="0 0 9 9" fill="none" xmlns="http://www.w3.org/2000/svg">
<g clip-path="url(#clip0_46_2)">
<path fill-rule="evenodd" clip-rule="evenodd" d="M4.50012 0.1875C3.43183 0.188054 2.39856 0.566422 1.58509 1.25495C0.771618 1.94347 0.230979 2.89725 0.0598445 3.94575C-0.11129 4.99425 0.0982378 6.06908 0.650967 6.97807C1.2037 7.88705 2.06358 8.57091 3.07686 8.90736C3.30041 8.94886 3.38461 8.81031 3.38461 8.6925C3.38461 8.57469 3.38014 8.23313 3.37865 7.85971C2.12679 8.13014 1.86226 7.33143 1.86226 7.33143C1.65809 6.81279 1.363 6.67646 1.363 6.67646C0.954658 6.39936 1.39356 6.40454 1.39356 6.40454C1.84587 6.4364 2.08357 6.86614 2.08357 6.86614C2.48447 7.55 3.13648 7.35218 3.39281 7.2366C3.43305 6.9469 3.55004 6.74981 3.67895 6.63793C2.67895 6.52531 1.62828 6.14152 1.62828 4.42703C1.62208 3.98239 1.78802 3.55239 2.09177 3.22601C2.04557 3.11339 1.89132 2.65846 2.13573 2.04054C2.13573 2.04054 2.51353 1.92051 3.37344 2.49917C4.11102 2.29861 4.88921 2.29861 5.62679 2.49917C6.48596 1.92051 6.863 2.04054 6.863 2.04054C7.10816 2.65698 6.95391 3.1119 6.90772 3.22601C7.21242 3.55245 7.37871 3.98319 7.37195 4.42852C7.37195 6.1467 6.31904 6.52531 5.31755 6.63571C5.4785 6.775 5.62232 7.04692 5.62232 7.4648C5.62232 8.06346 5.6171 8.54506 5.6171 8.6925C5.6171 8.81179 5.69832 8.95108 5.92634 8.90736C6.93975 8.57087 7.79971 7.88689 8.35243 6.97775C8.90515 6.06861 9.11457 4.99361 8.94324 3.94502C8.77191 2.89643 8.23101 1.94263 7.41726 1.25423C6.60352 0.565821 5.57002 0.187703 4.5016 0.1875H4.50012Z" fill="white"/>
<path d="M1.70415 6.61199C1.69446 6.63421 1.65869 6.64088 1.62963 6.62532C1.60057 6.60976 1.57896 6.58087 1.5894 6.5579C1.59983 6.53493 1.63485 6.529 1.66391 6.54456C1.69297 6.56012 1.71533 6.58976 1.70415 6.61199Z" fill="white"/>
<path d="M1.88671 6.8143C1.87128 6.82203 1.85362 6.82419 1.83677 6.82041C1.81991 6.81662 1.80491 6.80713 1.79431 6.79355C1.76525 6.76244 1.75929 6.71946 1.78164 6.7002C1.804 6.68094 1.84424 6.68983 1.8733 6.72095C1.90236 6.75206 1.90907 6.79504 1.88671 6.8143Z" fill="white"/>
<path d="M2.06408 7.07136C2.03651 7.09062 1.98956 7.07136 1.96348 7.03283C1.95627 7.02592 1.95053 7.01763 1.94661 7.00846C1.9427 6.9993 1.94067 6.98944 1.94067 6.97948C1.94067 6.96952 1.9427 6.95967 1.94661 6.9505C1.95053 6.94133 1.95627 6.93305 1.96348 6.92614C1.99105 6.90761 2.038 6.92614 2.06408 6.96392C2.09016 7.00171 2.0909 7.05209 2.06408 7.07136Z" fill="white"/>
<path d="M2.30479 7.32034C2.2802 7.34776 2.23028 7.34035 2.1893 7.3033C2.14831 7.26625 2.13862 7.21587 2.16321 7.1892C2.1878 7.16253 2.23773 7.16994 2.2802 7.20624C2.32268 7.24255 2.33087 7.29367 2.30479 7.32034Z" fill="white"/>
<path d="M2.64232 7.46552C2.63114 7.50035 2.58047 7.51591 2.5298 7.50109C2.47913 7.48627 2.44559 7.44478 2.45528 7.40921C2.46497 7.37365 2.51638 7.35735 2.5678 7.37365C2.61922 7.38995 2.652 7.42922 2.64232 7.46552Z" fill="white"/>
<path d="M3.01044 7.49075C3.01044 7.52706 2.96871 7.55818 2.91506 7.55892C2.86141 7.55966 2.81744 7.53002 2.81744 7.49372C2.81744 7.45741 2.85917 7.42629 2.91282 7.42555C2.96647 7.42481 3.01044 7.45371 3.01044 7.49075Z" fill="white"/>
<path d="M3.35321 7.43366C3.35992 7.46996 3.32266 7.50775 3.26901 7.51664C3.21536 7.52553 3.16841 7.50404 3.16171 7.46848C3.155 7.43292 3.19375 7.39439 3.24591 7.38476C3.29807 7.37513 3.3465 7.39735 3.35321 7.43366Z" fill="white"/>
</g>
<defs>
<clipPath id="clip0_46_2">
<rect width="9" height="9" fill="white"/>
</clipPath>
</defs>
</svg>
