<svg width="10" height="9" viewBox="0 0 10 9" fill="none" xmlns="http://www.w3.org/2000/svg">
<path d="M8.92906 0.111084H0.711914C0.31829 0.111084 0 0.401962 0 0.761594V8.48485C0 8.84448 0.31829 9.13713 0.711914 9.13713H8.92906C9.32269 9.13713 9.64286 8.84449 9.64286 8.48662V0.761594C9.64286 0.401962 9.32269 0.111084 8.92906 0.111084ZM2.86084 7.80261H1.42948V3.49409H2.86084V7.80261ZM2.14516 2.90704C1.68562 2.90704 1.31459 2.55975 1.31459 2.13137C1.31459 1.70298 1.68562 1.35569 2.14516 1.35569C2.60282 1.35569 2.97384 1.70298 2.97384 2.13137C2.97384 2.55799 2.60282 2.90704 2.14516 2.90704ZM8.21714 7.80261H6.78767V5.70829C6.78767 5.20939 6.77825 4.56593 6.04374 4.56593C5.2998 4.56593 5.1868 5.11066 5.1868 5.67303V7.80261H3.75921V3.49409H5.1303V4.0829H5.14914C5.33936 3.74442 5.80643 3.38655 6.5014 3.38655C7.94971 3.38655 8.21714 4.27858 8.21714 5.43856V7.80261Z" fill="white"/>
</svg>
