<?xml version="1.0" encoding="UTF-8"?><svg id="Layer_2" xmlns="http://www.w3.org/2000/svg" viewBox="0 0 713.76 188.67"><defs><style>.cls-1{fill:#fff;}</style></defs><g id="Layer_1-2"><g><path class="cls-1" d="M0,186.82v-1.59H9.66V93.03H0v-1.59H43.27v1.59h-10.67v92.2h8.54v1.59H0Zm16.81-27.6l53.78-66.2h-11.84v-1.59h25.56v1.59h-11.9L18.62,159.23h-1.81Zm28.6,27.6v-1.59h9.07l-21.61-45.02,15.47-19.33,31.75,64.35h9.07v1.59H45.41Z"/><path class="cls-1" d="M132.27,188.1c-5.94,0-11.28-1.21-16.01-3.62-4.73-2.42-8.77-5.83-12.11-10.24-3.34-4.41-5.9-9.59-7.66-15.55-1.76-5.96-2.64-12.47-2.64-19.55s.92-13.6,2.77-19.55c1.85-5.96,4.48-11.14,7.9-15.55,3.41-4.41,7.47-7.82,12.16-10.24,4.7-2.42,9.89-3.62,15.58-3.62s10.88,1.21,15.58,3.62c4.7,2.42,8.75,5.83,12.17,10.24,3.41,4.41,6.05,9.59,7.9,15.55,1.85,5.96,2.77,12.47,2.77,19.55s-.88,13.6-2.64,19.55c-1.76,5.96-4.31,11.14-7.66,15.55-3.34,4.41-7.38,7.82-12.11,10.24-4.73,2.42-10.07,3.62-16.01,3.62Zm0-1.46c2.77,0,5.03-1.09,6.78-3.28,1.74-2.18,3.09-5.33,4.06-9.44,.96-4.11,1.62-9.09,1.97-14.94,.36-5.85,.53-12.46,.53-19.84s-.23-13.99-.69-19.84c-.46-5.85-1.2-10.83-2.21-14.94-1.01-4.11-2.37-7.26-4.08-9.44-1.71-2.18-3.82-3.27-6.35-3.27s-4.6,1.09-6.32,3.27c-1.73,2.18-3.09,5.33-4.11,9.44-1.01,4.11-1.75,9.09-2.21,14.94-.46,5.85-.69,12.46-.69,19.84s.18,13.99,.53,19.84c.36,5.85,1.01,10.83,1.97,14.94,.96,4.11,2.31,7.26,4.05,9.44,1.74,2.18,4,3.28,6.78,3.28Z"/><path class="cls-1" d="M175.91,186.82v-1.59l40.02-92.2h-11.79c-4.84,0-8.83,1.04-11.98,3.12-3.15,2.08-5.71,4.92-7.68,8.52-1.97,3.6-3.67,7.67-5.1,12.21h-1.33v-25.44h64.03v1.59l-40.02,92.2h14.99c4.84,0,8.83-1.08,11.98-3.24,3.15-2.16,5.71-5.21,7.68-9.16,1.97-3.94,3.67-8.61,5.1-13.99h1.33v27.98h-67.23Z"/><path class="cls-1" d="M248.32,186.82v-1.59h9.66V93.03h-9.66v-1.59h42.21v1.59h-9.6v92.2h4.86c3.63,0,6.97-.65,10.03-1.94,3.06-1.29,5.79-3.13,8.19-5.5,2.4-2.37,4.43-5.22,6.08-8.55,1.65-3.33,2.87-7,3.66-11.03h1.33v28.62h-66.75Zm0-44v-1.78l47.54-27.98v1.78l-47.54,27.98Z"/><path class="cls-1" d="M359.78,188.1c-5.94,0-11.28-1.21-16.01-3.62-4.73-2.42-8.77-5.83-12.11-10.24-3.34-4.41-5.9-9.59-7.66-15.55-1.76-5.96-2.64-12.47-2.64-19.55s.92-13.6,2.77-19.55c1.85-5.96,4.48-11.14,7.9-15.55,3.41-4.41,7.47-7.82,12.16-10.24,4.7-2.42,9.89-3.62,15.58-3.62s10.88,1.21,15.58,3.62c4.7,2.42,8.75,5.83,12.16,10.24,3.42,4.41,6.05,9.59,7.9,15.55,1.85,5.96,2.77,12.47,2.77,19.55s-.88,13.6-2.64,19.55c-1.76,5.96-4.31,11.14-7.66,15.55-3.34,4.41-7.38,7.82-12.11,10.24-4.73,2.42-10.07,3.62-16.01,3.62Zm0-1.46c2.77,0,5.03-1.09,6.78-3.28,1.74-2.18,3.09-5.33,4.05-9.44,.96-4.11,1.62-9.09,1.97-14.94,.36-5.85,.53-12.46,.53-19.84s-.23-13.99-.69-19.84c-.46-5.85-1.2-10.83-2.21-14.94-1.01-4.11-2.37-7.26-4.08-9.44-1.71-2.18-3.82-3.27-6.35-3.27s-4.6,1.09-6.32,3.27c-1.73,2.18-3.09,5.33-4.11,9.44-1.01,4.11-1.75,9.09-2.21,14.94-.46,5.85-.69,12.46-.69,19.84s.18,13.99,.53,19.84c.36,5.85,1.01,10.83,1.97,14.94,.96,4.11,2.31,7.26,4.05,9.44,1.74,2.18,4,3.28,6.78,3.28Z"/><path class="cls-1" d="M438.51,188.1l-33.19-95.06h-7.9v-1.59h93.61v1.59h-21.47l24.55,70.44-8.28,24.62h-6.67l-33.29-95.06h-13.66l24.24,70.11-8.02,24.96h-9.92Z"/><path class="cls-1" d="M540.56,188.67c-3.27,0-6.23-.66-8.88-1.97-2.65-1.31-5.04-3.09-7.18-5.34l-13.12,6.74h-1.23v-33.7h1.39c1.42,3.6,2.99,7.32,4.7,11.16,1.71,3.84,3.68,7.39,5.92,10.65,2.24,3.26,4.84,5.9,7.79,7.92,2.95,2.01,6.38,3.02,10.3,3.02,2.99,0,5.54-.76,7.66-2.29,2.12-1.53,3.73-3.52,4.86-5.98,1.12-2.46,1.68-5.11,1.68-7.95,0-3.18-.78-5.81-2.35-7.88-1.57-2.08-3.63-3.86-6.19-5.34-2.56-1.48-5.38-2.93-8.46-4.32-3.08-1.4-6.15-2.98-9.23-4.74-3.08-1.76-5.9-3.95-8.46-6.58-2.56-2.63-4.62-5.92-6.19-9.89-1.57-3.96-2.35-8.85-2.35-14.66s1.21-10.94,3.63-15.01c2.42-4.07,5.56-7.14,9.42-9.22,3.86-2.08,7.94-3.12,12.25-3.12,2.81,0,5.45,.54,7.92,1.62,2.47,1.08,4.76,2.64,6.86,4.67l12.65-6.29h1.12v31.22h-1.39c-2.13-5.68-4.45-10.75-6.96-15.2-2.51-4.45-5.37-7.96-8.59-10.52-3.22-2.56-6.98-3.85-11.29-3.85-3.45,0-6.09,1.24-7.92,3.72-1.83,2.48-2.75,5.56-2.75,9.25,0,2.84,.78,5.24,2.35,7.19,1.56,1.95,3.63,3.7,6.19,5.25,2.56,1.55,5.37,3.08,8.43,4.61,3.06,1.53,6.13,3.24,9.2,5.15,3.08,1.91,5.9,4.2,8.46,6.87,2.56,2.67,4.62,5.92,6.19,9.76,1.57,3.84,2.35,8.49,2.35,13.96,0,6.36-1.35,11.86-4.05,16.5-2.7,4.64-6.24,8.23-10.62,10.78-4.37,2.54-9.07,3.82-14.09,3.82Z"/><path class="cls-1" d="M575.08,186.82v-1.59h9.66V93.03h-9.66v-1.59h43.27v1.59h-10.67v92.2h8.54v1.59h-41.14Zm16.81-27.6l53.78-66.2h-11.84v-1.59h25.56v1.59h-11.9l-53.78,66.2h-1.81Zm28.6,27.6v-1.59h9.07l-21.61-45.02,15.47-19.33,31.75,64.35h9.07v1.59h-43.75Z"/><path class="cls-1" d="M666.21,186.82v-1.59h11.79V93.03h-11.79v-1.59h47.54v1.59h-12.81v92.2h12.81v1.59h-47.54Z"/></g><g><path class="cls-1" d="M30.19,1.18c5.92,0,10.76,1.03,14.52,3.1,3.76,2.07,6.54,4.99,8.34,8.75,1.8,3.76,2.7,8.21,2.7,13.33s-.9,9.51-2.7,13.15c-1.8,3.65-4.58,6.44-8.34,8.39-3.76,1.95-8.6,2.93-14.52,2.93h-10.74v37.54h8.78v1.48H1.3v-1.48H10.08V2.66H1.3V1.18H30.19Zm-10.74,48.18h10.74c2.35,0,4.45-.69,6.28-2.07,1.83-1.38,3.37-3.2,4.61-5.47,1.24-2.27,2.19-4.75,2.84-7.45,.65-2.7,.98-5.37,.98-8.01s-.33-5.34-.98-8.1c-.65-2.76-1.6-5.32-2.84-7.69-1.24-2.36-2.78-4.28-4.61-5.73-1.83-1.46-3.92-2.19-6.28-2.19h-10.74V49.36Z"/><path class="cls-1" d="M62.94,89.86v-1.48h10.74V50.78h9.37v37.6h11.77v1.48h-31.88Z"/><path class="cls-1" d="M133.61,91.04c-5,0-9.44-1.17-13.31-3.52-3.87-2.34-7.16-5.61-9.86-9.78-2.7-4.18-4.74-9.02-6.13-14.51-1.39-5.5-2.08-11.4-2.08-17.71s.74-12.21,2.21-17.71c1.47-5.5,3.59-10.34,6.35-14.51,2.76-4.18,6.07-7.44,9.93-9.78,3.86-2.34,8.16-3.52,12.9-3.52s9.03,1.17,12.87,3.52c3.84,2.35,7.14,5.61,9.91,9.78,2.76,4.18,4.88,9.02,6.35,14.51,1.47,5.5,2.21,11.4,2.21,17.71s-.7,12.21-2.08,17.71c-1.39,5.5-3.43,10.34-6.13,14.51-2.7,4.18-5.98,7.44-9.86,9.78-3.87,2.34-8.3,3.52-13.27,3.52Zm0-1.36c4.25,0,7.7-1.27,10.35-3.81,2.65-2.54,4.67-5.94,6.08-10.2,1.41-4.26,2.37-9.01,2.89-14.25,.52-5.24,.78-10.54,.78-15.9s-.3-10.66-.91-15.9c-.61-5.24-1.65-9.99-3.14-14.25-1.49-4.26-3.53-7.66-6.13-10.2s-5.91-3.81-9.93-3.81-7.34,1.27-9.95,3.81c-2.62,2.54-4.67,5.94-6.15,10.2-1.49,4.26-2.53,9.01-3.14,14.25-.61,5.24-.91,10.54-.91,15.9s.26,10.66,.78,15.9c.52,5.24,1.49,9.99,2.89,14.25,1.41,4.26,3.43,7.66,6.08,10.2,2.65,2.54,6.11,3.81,10.4,3.81Z"/><path class="cls-1" d="M186.58,89.86v-1.48h10.79V2.66h-9.81c-2.91,0-5.27,.6-7.09,1.8-1.81,1.2-3.23,2.91-4.24,5.11-1.01,2.21-1.71,4.86-2.08,7.95-.38,3.09-.56,6.51-.56,10.26h-1.23V1.18h59.34V27.78h-1.23c0-3.74-.2-7.16-.59-10.26-.39-3.09-1.1-5.74-2.11-7.95-1.01-2.21-2.44-3.91-4.27-5.11-1.83-1.2-4.17-1.8-7.01-1.8h-9.81V88.38h10.79v1.48h-30.9Z"/><path class="cls-1" d="M254.4,44.93v-.89h14.71c3.14,0,5.8-.82,7.99-2.45,2.19-1.64,3.86-3.98,5-7.04,1.14-3.05,1.72-6.73,1.72-11.03s-.57-8.01-1.72-11.14c-1.14-3.13-2.81-5.54-5-7.21-2.19-1.67-4.85-2.51-7.99-2.51h-32.37V1.18h32.37c4.94,0,9.24,.8,12.92,2.39,3.68,1.6,6.53,4.04,8.56,7.33,2.03,3.29,3.04,7.5,3.04,12.62s-.95,9.25-2.84,12.39c-1.9,3.13-4.67,5.42-8.31,6.86-3.65,1.44-8.1,2.16-13.36,2.16h-14.71Zm-17.65,44.93v-1.48h30.9v1.48h-30.9Zm10.74-.77V2.19h9.37V89.09h-9.37Zm45.66,1.36c-2.84,0-5.06-.63-6.64-1.89-1.59-1.26-2.74-2.96-3.46-5.11-.72-2.15-1.17-4.55-1.35-7.21-.18-2.66-.29-5.41-.32-8.25-.03-2.84-.16-5.59-.39-8.25-.23-2.66-.74-5.06-1.52-7.21-.78-2.15-2.04-3.85-3.75-5.11-1.72-1.26-4.08-1.89-7.09-1.89h-14.22v-.83h16.18c4.71,0,8.46,.8,11.26,2.39s4.9,3.69,6.3,6.3c1.41,2.6,2.35,5.47,2.82,8.6,.47,3.13,.73,6.27,.76,9.4,.03,3.13,.1,6,.2,8.6,.1,2.6,.45,4.69,1.05,6.27,.6,1.58,1.74,2.36,3.41,2.36,1.05,0,1.99-.13,2.84-.38,.85-.26,1.62-.58,2.3-.98l.44,1.36c-.78,.51-1.95,.95-3.48,1.3-1.54,.35-3.32,.53-5.35,.53Z"/><path class="cls-1" d="M72.72,2.12h-10.74V.64h31.88v1.48h-21.14Z"/></g></g></svg>