<svg width="48" height="48" viewBox="0 0 48 48" fill="none" xmlns="http://www.w3.org/2000/svg">
<path d="M38 32C38 35.7712 38 37.6569 36.8284 38.8284C35.6569 40 33.7712 40 30 40L18 40C14.2288 40 12.3431 40 11.1716 38.8284C10 37.6569 10 35.7712 10 32L10 18C10 12.3431 10 9.51472 11.7574 7.75736C13.5147 6 16.3431 6 22 6L26 6C31.6569 6 34.4853 6 36.2426 7.75736C38 9.51471 38 12.3431 38 18L38 32Z" stroke="white" stroke-width="2" stroke-linejoin="round"/>
<path d="M24 40L24 30" stroke="white" stroke-width="2" stroke-linecap="round" stroke-linejoin="round"/>
</svg>
