<svg width="19" height="19" viewBox="0 0 19 19" fill="none" xmlns="http://www.w3.org/2000/svg">
<path d="M6.08005 8.36C6.08005 7.73034 5.56971 7.22 4.94005 7.22C4.31039 7.22 3.80005 7.73034 3.80005 8.36V12.16C3.80005 15.3079 6.35213 17.86 9.50005 17.86C12.648 17.86 15.2 15.3079 15.2 12.16V9.12C15.2 8.49034 14.6897 7.98 14.06 7.98C13.4304 7.98 12.92 8.49034 12.92 9.12V8.36C12.92 7.73034 12.4097 7.22 11.78 7.22C11.1504 7.22 10.64 7.73034 10.64 8.36V7.6C10.64 6.97034 10.1297 6.46 9.50005 6.46C8.87039 6.46 8.36005 6.97034 8.36005 7.6V2.28C8.36005 1.65034 7.84971 1.14 7.22005 1.14C6.59039 1.14 6.08005 1.65034 6.08005 2.28V11.02V8.36Z" stroke="white" stroke-width="0.6" stroke-miterlimit="10" stroke-linecap="round" stroke-linejoin="round"/>
<path d="M14.4401 6.08V0.76" stroke="white" stroke-width="0.6" stroke-miterlimit="10" stroke-linecap="round" stroke-linejoin="round"/>
<path d="M15.58 4.94L14.44 6.08L13.3 4.94" stroke="white" stroke-width="0.6" stroke-miterlimit="10" stroke-linecap="round" stroke-linejoin="round"/>
<path d="M15.58 1.9L14.44 0.76L13.3 1.9" stroke="white" stroke-width="0.6" stroke-miterlimit="10" stroke-linecap="round" stroke-linejoin="round"/>
</svg>
